<svg width="342" height="100" viewBox="0 0 342 100" fill="none" xmlns="http://www.w3.org/2000/svg"><g clip-path="url(#a)"><path fill-rule="evenodd" clip-rule="evenodd" d="M53.382 22.33c-.021 4.878-1.41 9.482-3.978 13.225 4.972 3.995 9.011 9.987 8.99 19.702-.04 11.143-8.72 23.696-23.656 23.654l-4.548.003h-.036c-6.352.005-16.81.013-22.2-.003C4.06 78.91-.02 76.808 0 71.825V7.212a7.196 7.196 0 0 1 .652-2.965 7.097 7.097 0 0 1 1.813-2.418C3.315 1.03 5.427 0 8.058 0h22.06C46.96 0 53.403 13.036 53.383 22.33zm-23.16-7.59h-15.64c-.01 1.988-.005 4.313 0 6.859v.002c.006 2.703.011 5.655 0 8.719h15.765c3.376 0 7.747-2.545 7.747-8.032.02-2.692-2.237-7.549-7.872-7.549zM26.6 64.38H26.621c3.482-.005 6.48-.01 8.034 0 5.47 0 9.612-4.267 9.612-9.377.02-6.392-4.785-9.987-9.612-9.987H14.583c-.014 5.124-.009 10.065-.004 14.275v.002c.002 1.854.004 3.565.004 5.088 3.728.01 8.153.004 11.995 0h.022zM72.5 1.625a7.505 7.505 0 0 1 7.135-.693c.921.39 1.758.96 2.462 1.68a7.728 7.728 0 0 1 1.641 2.507 7.819 7.819 0 0 1-.722 7.239 7.627 7.627 0 0 1-3.42 2.832c-1.39.58-2.919.729-4.393.427a7.569 7.569 0 0 1-3.887-2.123 7.754 7.754 0 0 1-2.07-3.956 7.824 7.824 0 0 1 .445-4.457 7.692 7.692 0 0 1 2.81-3.456zm11.726 26.108c0-4.983-3.75-7.527-7.664-7.527-3.915 0-7.437 2.691-7.437 7.254V71.3c0 9.819 15.101 10.239 15.101 0V27.732zm31.839 26.935c-.021 4.794 3.749 8.768 8.451 8.768 5.158 0 7.706 3.974 7.706 7.716 0 4.142-3.004 7.738-7.582 7.738-11.061 0-23.656-8.6-23.635-23.76.013-1.15.01-5.002.005-10.137v-.022c-.002-3.116-.005-6.703-.005-10.446h-1.512c-9.653-.021-9.343-14.824-.207-14.803h1.719V8.116c.021-4.836 3.646-7.674 7.437-7.674 3.79 0 7.623 2.733 7.623 7.464-.01.562-.006 2.09-.002 4.047v.008c.006 2.287.013 5.158.002 7.761h4.287c9.136.021 9.384 14.824-.29 14.803h-3.997c-.032 7.3-.015 14-.005 17.704v.007c.002 1.093.005 1.924.005 2.432zm142.807-35.03a28.9 28.9 0 0 0-16.243 4.951 29.557 29.557 0 0 0-10.795 13.278 30.058 30.058 0 0 0-1.706 17.127 29.795 29.795 0 0 0 7.957 15.202 29.076 29.076 0 0 0 14.937 8.152 28.807 28.807 0 0 0 16.882-1.647 29.3 29.3 0 0 0 13.134-10.89 29.966 29.966 0 0 0 4.959-16.463c.016-7.859-3.042-15.403-8.504-20.974-5.461-5.571-12.878-8.713-20.621-8.736zm-.104 44.176a14.164 14.164 0 0 1-7.951-2.462 14.485 14.485 0 0 1-5.262-6.531 14.732 14.732 0 0 1-.799-8.399 14.596 14.596 0 0 1 3.934-7.433 14.245 14.245 0 0 1 7.34-3.96 14.115 14.115 0 0 1 8.27.847 14.362 14.362 0 0 1 6.412 5.37 14.687 14.687 0 0 1 2.391 8.081 14.639 14.639 0 0 1-4.215 10.254 14.204 14.204 0 0 1-10.12 4.233zm79.836-49.333a7.52 7.52 0 0 1-4.227 1.289 7.59 7.59 0 0 1-5.358-2.288 7.823 7.823 0 0 1-2.224-5.45 7.796 7.796 0 0 1 1.293-4.284 7.628 7.628 0 0 1 3.42-2.832 7.495 7.495 0 0 1 4.393-.427 7.568 7.568 0 0 1 3.887 2.122 7.754 7.754 0 0 1 2.07 3.957 7.829 7.829 0 0 1-.445 4.457 7.687 7.687 0 0 1-2.809 3.456zm-142.871 5.83c-6.67 0-12.573 2.292-16.696 6.098-4.433-3.995-10.108-6.098-15.059-6.098a26.31 26.31 0 0 0-11.228 2.44c-1.408-1.578-3.459-2.377-5.53-2.377-3.812.021-7.706 2.776-7.706 7.675v43.44c-.021 9.609 15.163 9.945 15.163-.232V43.671c0-5.067 3.583-8.473 8.41-8.473 4.826 0 8.41 3.658 8.389 8.62-.01 2.485-.005 8.265 0 13.992v.059c.006 5.69.011 11.318 0 13.599-.02 9.63 15.06 9.966 15.081-.21.017-5.86.006-19.707.002-25.773v-.013l-.002-1.52v-1.248c0-4.415 3.77-7.506 8.265-7.506 4.826 0 8.431 3.658 8.431 8.62 0 4.963-.021 23.066-.042 27.65-.02 9.63 15.081 9.966 15.101-.21.016-5.436.008-16.072.003-22.665v-.041l-.003-4.839c.042-15.033-12.718-23.402-22.579-23.402zM308.882.746c3.982 1.423 6.073 5.853 4.671 9.895-1.403 4.041-5.767 6.164-9.749 4.74-3.982-1.422-6.073-5.853-4.671-9.894 1.403-4.042 5.767-6.165 9.749-4.741zm33.035 26.987c0-4.983-3.749-7.527-7.664-7.527-3.915 0-7.333 2.691-7.354 7.254V71.3c0 9.819 15.018 10.239 15.018 0l-.002-4.74v-.06c-.004-10.972-.015-36.528.002-38.767zm-42.983 48.57V28.05c0-10.303 14.956-10.26 14.956.042v48.36c0 14.57-10.647 23.549-23.055 23.549-4.848 0-8.183-3.553-8.183-7.695 0-3.785 2.983-7.633 8.121-7.633 5.137 0 8.161-3.932 8.161-8.368z" fill="#fff"/></g><defs><clipPath id="a"><path fill="#fff" d="M0 0h342v100H0z"/></clipPath></defs></svg>